<svg xmlns="http://www.w3.org/2000/svg" width="140" height="120" viewBox="0 0 140 120">
  <g id="Group_1" data-name="Group 1" transform="translate(-235.499 -415.499)">
    <path id="Line_1" data-name="Line 1"
      d="M-.009,111a8.845,8.845,0,0,1-4.622-1.306A9.24,9.24,0,0,1-7.717,97.136l60-101.693A8.916,8.916,0,0,1,64.63-7.7,9.24,9.24,0,0,1,67.717,4.861l-60,101.693A8.965,8.965,0,0,1-.009,111Z"
      transform="translate(306.497 424.5)" />
    <path id="Line_2" data-name="Line 2"
      d="M60.009,111a8.964,8.964,0,0,1-7.726-4.445l-60-101.693A9.24,9.24,0,0,1-4.63-7.7,8.916,8.916,0,0,1,7.717-4.556l60,101.693a9.24,9.24,0,0,1-3.087,12.557A8.847,8.847,0,0,1,60.009,111Z"
      transform="translate(306.497 424.5)" />
    <path id="Line_3" data-name="Line 3"
      d="M-.009,111a8.845,8.845,0,0,1-4.622-1.306A9.24,9.24,0,0,1-7.717,97.136l60-101.693A8.916,8.916,0,0,1,64.63-7.7,9.24,9.24,0,0,1,67.717,4.861l-60,101.693A8.965,8.965,0,0,1-.009,111Z"
      transform="translate(244.5 424.5)" />
    <path id="Line_4" data-name="Line 4" d="M60,9H0A9,9,0,0,1-9,0,9,9,0,0,1,0-9H60a9,9,0,0,1,9,9A9,9,0,0,1,60,9Z"
      transform="translate(244.5 526.497)" />
  </g>
</svg>